<?xml version="1.0" encoding="UTF-8"?>
<svg width="159.08mm" height="25.921mm" version="1.1" viewBox="0 0 159.08 25.921" xmlns="http://www.w3.org/2000/svg">
 <defs>
  <filter id="a" x="-.0030728" y="-.02004" width="1.0125" height="1.0818" color-interpolation-filters="sRGB">
   <feFlood flood-color="rgb(0,0,0)" flood-opacity=".49804" result="flood"/>
   <feComposite in="flood" in2="SourceGraphic" operator="in" result="composite1"/>
   <feGaussianBlur in="composite1" result="blur" stdDeviation="0.2"/>
   <feOffset dx="1" dy="1" result="offset"/>
   <feComposite in="SourceGraphic" in2="offset" result="composite2"/>
  </filter>
 </defs>
 <g transform="translate(-14.244 -46.59)">
  <g fill="#00f" filter="url(#a)" stroke-width=".26458" aria-label="easyjevko.lua">
   <path d="m25.868 60.077c0.0254-3.81-2.1336-6.5024-5.2324-6.5024-3.2512 0-5.6896 2.8194-5.6896 6.6294 0 3.5814 2.3114 5.969 5.7404 5.969 2.4384 0 4.1402-1.1938 5.1816-3.6068l-0.889-0.4826c-1.0414 1.9558-2.1082 2.7178-3.81 2.7178-1.2954 0-2.2352-0.5334-2.8956-1.6764-0.4572-0.762-0.6604-1.651-0.635-3.048zm-8.2042-1.0922c0-0.7874 0.1016-1.3462 0.3556-2.0574 0.5334-1.524 1.3462-2.2606 2.5908-2.2606 1.524 0 2.54 1.3462 2.54 3.4036 0 0.7112-0.2286 0.9144-1.0414 0.9144z"/>
   <path d="m38.086 57.613c0-1.6002-0.2794-2.413-1.016-3.0226-0.8382-0.6858-2.0828-1.016-3.7084-1.016-2.8702 0-4.953 1.3462-4.953 3.2004 0 0.9398 0.5842 1.5494 1.4732 1.5494 0.8128 0 1.3716-0.5334 1.3716-1.2954 0-0.3302-0.127-0.6858-0.381-1.0414-0.1524-0.1778-0.1778-0.2286-0.1778-0.3556 0-0.508 1.016-0.9652 2.2352-0.9652 0.8128 0 1.7018 0.254 2.1082 0.635 0.4826 0.4064 0.6604 1.016 0.6604 2.159v0.9906c-2.6416 0.4572-3.4798 0.6604-4.7244 1.143-2.2098 0.8128-3.2512 1.9812-3.2512 3.6068 0 1.8288 1.4224 2.9718 3.683 2.9718 1.7526 0 3.3274-0.7112 4.4196-2.0066 0.4064 1.2954 1.0414 1.8034 2.2352 1.8034 1.143 0 2.3368-0.7366 2.3368-1.4732 0-0.1778-0.1016-0.3048-0.254-0.3048-0.1016 0-0.2032 0.0254-0.381 0.1016-0.3556 0.1524-0.508 0.1778-0.7112 0.1778-0.7112 0-0.9652-0.4572-0.9652-1.7526zm-2.3876 3.0988c0 1.524-0.0762 1.8796-0.508 2.54-0.635 0.9398-1.778 1.5748-2.8956 1.5748-1.1684 0-2.0066-0.8382-2.0066-1.9812 0-1.0668 0.5334-1.8288 1.651-2.3622 0.7874-0.3556 1.778-0.6096 3.7592-0.9398z"/>
   <path d="m50.659 53.676h-0.889l-0.7366 0.9144c-0.9144-0.7112-1.8288-1.016-3.0988-1.016-2.2352 0-3.7084 1.4478-3.7084 3.683 0 0.9906 0.3302 1.8288 0.889 2.3368 0.5842 0.5334 1.1684 0.7874 2.6924 1.143l1.3462 0.3048c2.0066 0.4826 2.7178 0.9906 2.7178 2.0066 0 1.1938-1.0414 2.032-2.5146 2.032-2.159 0-3.683-1.3716-4.2926-3.9116h-1.016v4.8006h0.889l0.889-1.0414c1.0414 0.8382 2.1844 1.2446 3.4798 1.2446 2.4892 0 4.1402-1.5494 4.1402-3.9116 0-1.1176-0.3556-1.9812-1.0668-2.5654-0.6096-0.5334-1.1176-0.7366-2.667-1.0668l-1.27-0.2794c-1.397-0.3048-1.397-0.3048-1.8542-0.5588-0.5588-0.254-0.889-0.7874-0.889-1.3462 0-1.0414 0.9652-1.7526 2.3622-1.7526 0.9652 0 1.7526 0.3302 2.4638 1.016 0.5588 0.5588 0.8382 1.0668 1.2446 2.2352h0.889z"/>
   <path d="m59.904 62.566-2.794-6.5278c-0.1016-0.254-0.1524-0.381-0.1524-0.508 0-0.4826 0.3048-0.6604 1.1684-0.6604h0.5334v-0.9144h-6.0452v0.9144h0.2794c0.8636 0.0254 1.1938 0.2794 1.7272 1.3716l4.1402 9.3726-0.4318 0.889c-0.9144 1.9304-2.1082 3.2766-2.921 3.2766-0.2286 0-0.4064-0.1016-0.4064-0.254 0-0.0508 0.0254-0.127 0.0508-0.2286 0.0762-0.2286 0.127-0.4572 0.127-0.6604 0-0.6604-0.5334-1.143-1.2954-1.143-0.889 0-1.524 0.6604-1.524 1.5748 0 1.143 0.9652 1.9558 2.3114 1.9558s2.4892-0.6604 3.5052-2.032c0.7874-1.0414 1.2954-2.1082 2.413-4.8768l2.8956-7.1882c0.5842-1.4732 1.143-2.032 2.1336-2.0574h0.1524v-0.9144h-5.08v0.9144h0.4064c0.9652 0 1.3716 0.2794 1.3716 0.9398 0 0.2794-0.0762 0.5842-0.254 1.016z"/>
   <path d="m71.792 53.955-4.953 0.2794v1.0922h1.4732c0.9652 0.0254 1.0922 0.1778 1.0922 1.27v8.6106c0 2.0574-0.127 3.0226-0.4826 3.7592-0.254 0.508-0.8382 0.889-1.397 0.889-0.3556 0-0.635-0.1524-0.635-0.3302 0-0.1016 0.0254-0.1524 0.127-0.4064 0.127-0.254 0.1778-0.4318 0.1778-0.6096 0-0.635-0.6096-1.1938-1.3208-1.1938-0.8128 0-1.4224 0.635-1.4224 1.524 0 1.2446 1.143 2.0828 2.8448 2.0828 1.4224 0 2.7178-0.6096 3.4544-1.651 0.7874-1.1176 1.0414-2.413 1.0414-5.2832zm-1.1938-6.3246c-0.8128 0-1.4732 0.6604-1.4732 1.4732s0.6604 1.4732 1.4478 1.4732c0.8382 0 1.4986-0.6604 1.4986-1.4732s-0.6604-1.4732-1.4732-1.4732z"/>
   <path d="m85.863 60.077c0.0254-3.81-2.1336-6.5024-5.2324-6.5024-3.2512 0-5.6896 2.8194-5.6896 6.6294 0 3.5814 2.3114 5.969 5.7404 5.969 2.4384 0 4.1402-1.1938 5.1816-3.6068l-0.889-0.4826c-1.0414 1.9558-2.1082 2.7178-3.81 2.7178-1.2954 0-2.2352-0.5334-2.8956-1.6764-0.4572-0.762-0.6604-1.651-0.635-3.048zm-8.2042-1.0922c0-0.7874 0.1016-1.3462 0.3556-2.0574 0.5334-1.524 1.3462-2.2606 2.5908-2.2606 1.524 0 2.54 1.3462 2.54 3.4036 0 0.7112-0.2286 0.9144-1.0414 0.9144z"/>
   <path d="m93.763 62.718-2.8956-6.7056c-0.0762-0.2032-0.127-0.4064-0.127-0.5588 0-0.4318 0.3302-0.5842 1.3716-0.5842h0.3556v-0.9144h-5.9944v0.9144h0.2032c0.9652 0 1.3208 0.254 1.6764 1.0922l4.3688 10.211h0.889l3.6068-8.9154c0.7112-1.7272 1.3208-2.3114 2.3622-2.3876h0.1016v-0.9144h-5.08v0.9144h0.3556c0.889 0 1.3716 0.3048 1.3716 0.889 0 0.3048-0.0762 0.6858-0.2286 1.0668z"/>
   <path d="m104.96 59.645v-12.573l-4.699 0.2794v1.0922h1.2192c0.9652 0.0254 1.0922 0.1778 1.0922 1.27v14.173c-0.0254 0.3556-0.0508 0.508-0.1524 0.635-0.1778 0.2286-0.6604 0.3302-1.7526 0.3556h-0.1016v0.9144h6.4262v-0.9144h-0.1016c-1.7018-0.0508-1.9304-0.1778-1.9304-1.0922v-2.5654l1.5494-1.4732 3.0226 4.2418c0.127 0.2032 0.1778 0.3302 0.1778 0.4318 0 0.3556-0.2794 0.4572-1.1176 0.4572h-0.4826v0.9144h6.7056v-0.9144c-1.4224-0.127-1.9304-0.4318-2.9718-1.7526l-3.6068-4.9276 1.143-1.1176c1.4986-1.4478 2.5654-2.0066 4.2926-2.2098v-0.9144h-6.6802v0.9144h0.7874c0.8128 0 1.1938 0.1524 1.1938 0.4826 0 0.2794-0.1778 0.5842-0.5842 0.9906z"/>
   <path d="m120.84 53.574c-3.1242 0-5.5372 2.7686-5.5372 6.3246 0 3.4798 2.4384 6.2738 5.4864 6.2738s5.4864-2.794 5.4864-6.2992c0-3.4798-2.4384-6.2992-5.4356-6.2992zm0 1.0922c1.778 0 2.7686 1.8542 2.7686 5.207 0 3.3782-0.9906 5.207-2.8194 5.207s-2.8194-1.8288-2.8194-5.1816c0-3.4544 0.9652-5.2324 2.8702-5.2324z"/>
   <path d="m130.26 62.972c-0.889 0-1.6002 0.7112-1.6002 1.5748 0 0.889 0.7112 1.6002 1.5748 1.6002 0.889 0 1.6002-0.7112 1.6002-1.6002 0-0.8636-0.7112-1.5748-1.5748-1.5748z"/>
   <path d="m139.03 47.072-4.699 0.2794v1.0922h1.2446c0.9398 0.0254 1.0668 0.1778 1.0668 1.27v14.148c-0.0254 0.381-0.0508 0.5334-0.1524 0.6604-0.1778 0.2286-0.6604 0.3302-1.7526 0.3556h-0.1778v0.9144h6.5786v-0.9144h-0.1778c-1.7018-0.0508-1.9304-0.1778-1.9304-1.0922v-1.1176z"/>
   <path d="m152.31 65.97 4.6228-0.1778v-1.0922h-0.635c-1.4732-0.0508-1.6002-0.2032-1.6002-1.8542v-8.89l-4.7752 0.2794v1.0922h1.2954c0.9652 0.0254 1.0922 0.1778 1.0922 1.27v3.1242c0 1.4478-0.1524 2.3114-0.5334 3.1242-0.5334 1.143-1.5494 1.778-2.794 1.778-0.7874 0-1.4478-0.2794-1.778-0.7874-0.3302-0.4826-0.381-0.7366-0.381-2.1336v-7.747l-4.445 0.2794v1.0922h0.9652c0.9652 0.0254 1.0922 0.1778 1.0922 1.27v5.4864c0 1.2954 0.1016 1.8796 0.4826 2.4638 0.6858 1.0414 1.905 1.6256 3.429 1.6256 1.6764 0 2.8448-0.6858 3.9624-2.3114z"/>
   <path d="m168.84 57.613c0-1.6002-0.2794-2.413-1.016-3.0226-0.8382-0.6858-2.0828-1.016-3.7084-1.016-2.8702 0-4.953 1.3462-4.953 3.2004 0 0.9398 0.5842 1.5494 1.4732 1.5494 0.8128 0 1.3716-0.5334 1.3716-1.2954 0-0.3302-0.127-0.6858-0.381-1.0414-0.1524-0.1778-0.1778-0.2286-0.1778-0.3556 0-0.508 1.016-0.9652 2.2352-0.9652 0.8128 0 1.7018 0.254 2.1082 0.635 0.4826 0.4064 0.6604 1.016 0.6604 2.159v0.9906c-2.6416 0.4572-3.4798 0.6604-4.7244 1.143-2.2098 0.8128-3.2512 1.9812-3.2512 3.6068 0 1.8288 1.4224 2.9718 3.683 2.9718 1.7526 0 3.3274-0.7112 4.4196-2.0066 0.4064 1.2954 1.0414 1.8034 2.2352 1.8034 1.143 0 2.3368-0.7366 2.3368-1.4732 0-0.1778-0.1016-0.3048-0.254-0.3048-0.1016 0-0.2032 0.0254-0.381 0.1016-0.3556 0.1524-0.508 0.1778-0.7112 0.1778-0.7112 0-0.9652-0.4572-0.9652-1.7526zm-2.3876 3.0988c0 1.524-0.0762 1.8796-0.508 2.54-0.635 0.9398-1.778 1.5748-2.8956 1.5748-1.1684 0-2.0066-0.8382-2.0066-1.9812 0-1.0668 0.5334-1.8288 1.651-2.3622 0.7874-0.3556 1.778-0.6096 3.7592-0.9398z"/>
  </g>
 </g>
</svg>
